<svg version="1.1" id="Layer_1" xmlns="http://www.w3.org/2000/svg" xmlns:xlink="http://www.w3.org/1999/xlink" x="0px" y="0px"
	 width="100%" viewBox="0 0 512 512" enable-background="new 0 0 512 512" xml:space="preserve">
<path fill="#000000" opacity="1.000000" stroke="none" 
	d="
M285.000000,513.000000 
	C190.023056,513.000000 95.546112,513.000000 1.034582,513.000000 
	C1.034582,342.398041 1.034582,171.796051 1.034582,1.097036 
	C171.560287,1.097036 342.120667,1.097036 512.840515,1.097036 
	C512.840515,171.666550 512.840515,342.333252 512.840515,513.000000 
	C437.129364,513.000000 361.314667,513.000000 285.000000,513.000000 
M392.077026,185.018433 
	C380.719360,185.067871 369.361725,185.117325 357.143951,185.019592 
	C351.396851,186.376770 347.837860,183.041092 344.615997,179.103180 
	C339.009033,172.250015 328.701141,171.935822 323.320190,180.173141 
	C321.415405,183.132339 319.356903,182.813538 316.398621,181.289398 
	C312.264771,179.159607 314.246490,175.759979 314.100159,172.978531 
	C313.722687,165.803436 309.205719,161.065292 302.026245,161.003464 
	C298.764954,160.975372 295.503174,160.998688 291.833160,160.998688 
	C291.833160,149.567917 291.833160,138.780975 291.974335,127.122208 
	C293.433685,126.413177 294.885040,125.106865 296.353607,125.087212 
	C311.569855,124.883560 326.788879,124.887306 342.934570,124.970924 
	C351.039032,124.970924 359.143463,124.970924 367.185608,124.970924 
	C372.393585,140.608826 389.696381,145.984299 402.730011,136.780319 
	C404.522003,134.667603 406.566254,132.718704 408.062866,130.414169 
	C414.998230,119.734764 410.919952,100.018456 391.549957,97.018600 
	C384.097656,95.864456 373.629761,100.889854 370.234741,107.298500 
	C369.022797,111.892159 366.353699,113.421120 361.382111,113.159500 
	C351.950134,112.663170 342.468536,113.110359 332.080048,113.014183 
	C317.186218,113.011086 302.292389,113.000885 287.398560,113.009132 
	C282.765259,113.011696 279.924469,114.919075 280.016357,120.921196 
	C280.011993,132.963699 280.071869,145.007034 279.915405,157.047546 
	C279.897491,158.428009 278.670959,159.792770 277.092865,161.017822 
	C276.431152,161.009750 275.769409,160.995834 275.107697,160.994492 
	C260.914398,160.965637 258.708740,163.090775 257.923676,177.075806 
	C257.845367,178.470474 256.670929,179.803604 255.311569,181.225632 
	C254.021408,181.744919 251.882706,183.017502 251.571884,182.667358 
	C248.345169,179.032623 242.805237,177.041168 242.969681,170.068680 
	C242.979965,163.406067 243.312103,156.721664 242.863068,150.090149 
	C242.642563,146.833771 241.677414,143.185623 239.845108,140.552841 
	C228.546646,124.318611 210.901978,119.330292 192.617996,114.210297 
	C191.490356,114.035278 190.364120,113.850418 189.234833,113.686775 
	C178.825592,112.178299 168.415817,110.673515 157.156784,109.017128 
	C155.412262,108.676758 153.668274,108.045258 151.923141,108.042084 
	C137.951004,108.016670 123.978661,108.110046 109.144363,108.020897 
	C103.498848,108.679169 97.803978,109.060684 92.218727,110.056839 
	C82.429802,111.802719 72.708107,113.925522 62.149948,115.978065 
	C59.479176,116.655548 56.717102,117.090134 54.153847,118.053650 
	C44.401184,121.719582 34.588829,125.330055 26.336088,133.172668 
	C22.025173,137.226288 17.485163,141.339081 17.099262,147.658691 
	C16.707222,154.078842 17.111853,160.547653 17.028229,167.924026 
	C17.074837,178.281693 17.121445,188.639374 17.028473,199.925507 
	C17.074488,215.614731 17.120501,231.303970 17.025852,247.922028 
	C17.073179,267.945862 17.120506,287.969727 17.029545,308.922791 
	C17.020206,320.386566 16.887085,331.852386 17.074274,343.312958 
	C17.133154,346.917877 17.456846,350.729797 18.694983,354.062164 
	C21.710077,362.177185 28.619438,366.875397 35.746742,370.846863 
	C50.137222,378.865540 65.890144,382.971588 82.850388,385.962860 
	C95.198502,386.991394 107.546608,388.019897 120.422035,389.741577 
	C133.950073,389.105743 147.478119,388.469910 161.861649,387.960297 
	C174.575226,385.586975 187.288818,383.213654 200.733643,380.715210 
	C203.330597,379.808228 205.972763,379.012054 208.516479,377.974579 
	C218.187241,374.030182 228.055878,370.390808 235.712616,361.766144 
	C239.935425,358.327484 243.062805,353.753876 242.768539,348.507080 
	C242.404663,342.019012 244.185806,337.117889 249.677017,332.805634 
	C251.040176,332.515381 252.481659,331.785736 253.752670,332.012329 
	C258.772308,332.907135 258.014954,336.903717 258.017303,340.493469 
	C258.022614,348.552155 262.399628,352.945801 270.392914,352.992401 
	C273.494751,353.010498 276.596802,352.995361 280.167450,352.995361 
	C280.167450,357.076080 280.167450,360.536682 280.026184,364.925507 
	C280.019409,374.527893 279.958099,384.130707 280.028320,393.732544 
	C280.064941,398.738464 282.241455,400.950226 287.205597,400.968475 
	C296.804108,401.003754 306.403198,400.886444 316.930695,400.966949 
	C329.288849,400.922699 341.647003,400.878448 354.925232,400.967194 
	C357.245880,400.977081 359.608276,401.270111 361.878082,400.935303 
	C366.042023,400.321075 368.280548,401.859161 370.059631,405.744080 
	C375.169037,416.901367 392.132660,421.181488 403.489868,411.892700 
	C403.818359,411.734161 404.001831,411.473541 404.547821,410.926666 
	C404.736786,410.630249 404.925751,410.333832 405.723297,409.696106 
	C406.012482,409.113861 406.231720,408.482452 406.601196,407.956604 
	C414.007324,397.416107 412.337250,384.650055 402.318970,376.889893 
	C394.414398,370.766968 378.237152,371.076843 371.247925,381.250275 
	C369.884705,383.752533 368.521484,386.254791 366.935455,389.166077 
	C359.841248,389.166077 352.423676,389.166077 344.077637,389.022461 
	C332.719147,389.069977 321.360626,389.117523 309.074829,389.024567 
	C303.490936,389.024567 297.907074,389.024567 291.832703,389.024567 
	C291.832703,383.238861 291.832703,378.117432 291.967377,372.068115 
	C291.967377,365.816376 291.967377,359.564636 291.967377,353.396790 
	C298.412964,352.101746 304.941986,354.958984 310.698059,349.784485 
	C311.796509,346.636658 313.856842,343.463531 313.774933,340.346710 
	C313.641754,335.278564 314.953827,332.125885 321.486633,330.901062 
	C322.494690,332.172791 323.882355,334.264526 325.603821,336.030975 
	C330.707977,341.268524 337.631653,341.448090 342.963135,336.522888 
	C344.772949,334.850952 346.350616,332.927704 348.738403,330.750092 
	C350.516022,330.163757 352.287201,329.091705 354.072327,329.067932 
	C368.381317,328.877502 382.692963,328.885071 397.931732,328.969604 
	C411.623138,328.924042 425.314514,328.878479 439.929077,328.970001 
	C443.078156,328.978760 446.271149,329.318726 449.364594,328.908234 
	C452.837555,328.447357 454.385864,330.012939 455.451904,332.929535 
	C460.664520,347.190704 482.727936,348.891663 491.739105,338.720947 
	C492.124329,338.015015 492.397308,337.211792 492.911987,336.618042 
	C498.626221,330.025726 498.360870,322.237946 495.821014,314.943726 
	C490.542297,299.783875 468.448547,295.620667 457.254303,310.286896 
	C455.584595,316.050232 451.829010,317.845215 445.943329,317.125946 
	C441.367554,316.566772 436.656830,317.112213 431.078247,317.018860 
	C416.053772,317.067841 401.029266,317.116821 385.076965,317.020111 
	C377.917358,317.020111 370.757782,317.020111 362.715759,317.020111 
	C363.833282,315.764679 364.201202,315.259644 364.657074,314.853210 
	C369.962433,310.123199 371.154999,301.214752 364.336365,295.700439 
	C362.562988,294.266296 361.501221,291.952240 360.748352,289.684570 
	C361.639740,285.417999 364.531586,284.829315 368.396698,284.920197 
	C378.146881,285.149475 382.352936,280.611755 381.969116,270.097656 
	C381.969116,267.861603 381.969116,265.625549 381.969116,262.831879 
	C388.987640,262.831879 395.494934,262.831879 402.887726,262.972656 
	C405.504761,262.972656 408.121796,262.972656 410.525543,262.972656 
	C418.500336,279.055878 431.473633,283.488556 445.666168,274.834167 
	C451.485138,269.880493 454.308929,263.805328 454.108093,255.944733 
	C453.842560,245.550720 447.665466,239.352005 440.500916,236.347183 
	C432.534241,233.005951 422.999573,234.762970 415.303558,242.181656 
	C413.650818,245.083084 411.998077,247.984512 410.184692,251.167953 
	C405.185242,251.167953 400.093933,251.167953 394.081543,251.022079 
	C390.154480,251.022079 386.227386,251.022079 382.001556,251.022079 
	C382.001556,247.290268 382.020813,244.163467 381.997437,241.036987 
	C381.952362,235.000305 379.188049,230.815521 373.657898,229.313705 
	C371.326477,228.680557 368.716461,229.077896 366.233398,228.997559 
	C362.122131,228.864548 359.810425,225.346268 361.665222,220.831970 
	C362.018158,220.486282 362.373779,220.143280 362.723633,219.794540 
	C371.064056,211.480789 371.260559,207.546936 363.868866,198.248962 
	C363.656464,197.981796 363.947479,197.314453 364.931366,196.973984 
	C375.955750,196.927170 386.980133,196.880356 398.931915,196.974197 
	C411.289764,196.927048 423.647583,196.879883 436.931458,196.973083 
	C441.591827,196.981186 446.270081,196.763687 450.901886,197.131378 
	C452.338959,197.245453 454.238617,198.643311 454.925659,199.971237 
	C460.561249,210.863495 475.341003,217.544113 487.738617,209.000641 
	C496.908844,203.493378 498.275146,194.611267 496.802826,185.370712 
	C495.487152,177.112854 489.988037,171.084976 481.717285,169.442734 
	C472.819977,167.676056 463.962921,168.351273 457.300964,177.221741 
	C455.710388,183.478867 452.066132,185.981888 445.345978,185.156525 
	C439.652130,184.457230 433.792053,185.111420 427.078156,185.016449 
	C415.720276,185.066605 404.362396,185.116776 392.077026,185.018433 
z"/>
<path fill="#219AF2" opacity="1.000000" stroke="none" 
	d="
M278.004791,161.164825 
	C278.670959,159.792770 279.897491,158.428009 279.915405,157.047546 
	C280.071869,145.007034 280.011993,132.963699 280.441650,120.480606 
	C282.362000,120.977905 283.921814,121.828224 285.337311,122.873856 
	C287.553833,124.511200 289.672852,126.280579 291.833160,127.994034 
	C291.833160,138.780975 291.833160,149.567917 291.833160,160.998688 
	C295.503174,160.998688 298.764954,160.975372 302.026245,161.003464 
	C309.205719,161.065292 313.722687,165.803436 314.100159,172.978531 
	C314.246490,175.759979 312.264771,179.159607 316.398621,181.289398 
	C319.356903,182.813538 321.415405,183.132339 323.816528,180.322006 
	C326.914032,182.994537 329.515167,185.518219 331.979340,188.352402 
	C327.942535,192.093643 325.144073,198.057068 318.492523,195.710312 
	C313.354431,193.897537 306.963684,192.470566 303.974030,188.647751 
	C301.140411,185.024475 302.006409,178.507904 301.183105,172.834198 
	C295.891510,172.834198 290.447784,172.834198 284.932190,172.498718 
	C283.817291,170.521072 282.762329,168.886322 281.734314,167.234863 
	C280.479340,165.218842 279.246948,163.188797 278.004791,161.164825 
z"/>
<path fill="#0546D6" opacity="1.000000" stroke="none" 
	d="
M17.167831,307.993561 
	C17.120506,287.969727 17.073179,267.945862 17.445911,247.480865 
	C21.188526,249.357666 24.511080,251.675629 27.903957,254.458008 
	C27.983730,262.395081 27.891603,269.869629 28.033966,277.339752 
	C28.153166,283.594482 30.566971,288.909790 36.219540,291.912415 
	C44.354980,296.233887 52.730495,300.103424 61.078773,304.490173 
	C62.744373,306.684753 64.359886,308.534271 65.919250,310.429993 
	C68.288391,313.310150 70.618561,316.222382 72.550362,319.074280 
	C56.441139,316.353607 41.870872,310.686676 27.832762,301.480286 
	C27.832762,306.689514 27.832762,310.841644 27.482590,314.973511 
	C23.810890,312.633362 20.489361,310.313446 17.167831,307.993561 
z"/>
<path fill="#013AD2" opacity="1.000000" stroke="none" 
	d="
M17.098688,308.458191 
	C20.489361,310.313446 23.810890,312.633362 27.551634,315.438141 
	C27.981184,322.904785 28.476692,329.927277 27.894297,336.859222 
	C26.884150,348.882446 32.946041,356.369171 42.999065,360.862732 
	C52.433926,365.079987 62.337784,368.247986 72.089836,372.222900 
	C73.331154,374.113617 74.541252,375.641907 75.699608,377.208435 
	C77.816475,380.071259 79.902725,382.956696 82.001747,385.832703 
	C65.890144,382.971588 50.137222,378.865540 35.746742,370.846863 
	C28.619438,366.875397 21.710077,362.177185 18.694983,354.062164 
	C17.456846,350.729797 17.133154,346.917877 17.074274,343.312958 
	C16.887085,331.852386 17.020206,320.386566 17.098688,308.458191 
z"/>
<path fill="#136FE3" opacity="1.000000" stroke="none" 
	d="
M310.045563,350.110321 
	C304.941986,354.958984 298.412964,352.101746 291.967377,353.396790 
	C291.967377,359.564636 291.967377,365.816376 291.575745,372.456940 
	C287.511902,369.896271 283.839691,366.946808 280.167450,363.997314 
	C280.167450,360.536682 280.167450,357.076080 280.167450,352.995361 
	C276.596802,352.995361 273.494751,353.010498 270.392914,352.992401 
	C262.399628,352.945801 258.022614,348.552155 258.017303,340.493469 
	C258.014954,336.903717 258.772308,332.907135 253.752670,332.012329 
	C252.481659,331.785736 251.040176,332.515381 249.139038,332.703552 
	C245.694809,330.388489 242.788574,328.175507 240.026825,325.655762 
	C244.075165,321.865326 246.901245,315.930542 253.619965,318.328796 
	C258.644226,320.122223 264.961365,321.440704 267.851440,325.176514 
	C270.712677,328.875092 270.000275,335.338257 270.904297,340.889191 
	C281.051941,340.889191 291.503540,340.889191 302.124054,341.183350 
	C304.877167,344.355103 307.461365,347.232727 310.045563,350.110321 
z"/>
<path fill="#1069E1" opacity="1.000000" stroke="none" 
	d="
M239.882339,325.962524 
	C242.788574,328.175507 245.694809,330.388489 248.823853,332.854370 
	C244.185806,337.117889 242.404663,342.019012 242.768539,348.507080 
	C243.062805,353.753876 239.935425,358.327484 235.114532,361.739044 
	C231.997818,359.103149 229.479172,356.494385 227.113937,353.570984 
	C232.725250,347.472717 232.692307,340.199524 227.180267,334.680969 
	C222.490356,329.985535 217.488785,325.556458 213.193878,320.524078 
	C208.968765,315.573517 204.786728,312.766052 198.449768,316.723846 
	C197.575073,317.270081 196.191925,317.002228 194.875092,316.816345 
	C191.420013,313.661987 188.134003,310.802612 185.050690,307.599792 
	C190.388412,305.869781 195.538086,304.533905 200.647293,303.058014 
	C201.804764,302.723663 203.062225,302.124023 203.854889,301.261597 
	C205.671280,299.285400 207.229248,297.071655 209.186584,295.123993 
	C212.360016,297.541931 215.238983,299.790253 217.975037,302.347656 
	C216.248856,303.970398 215.477692,305.064301 217.468628,306.975159 
	C223.813950,313.065277 229.904495,319.420837 236.247452,325.513550 
	C236.952423,326.190704 238.646805,325.837738 239.882339,325.962524 
z"/>
<path fill="#0A54DA" opacity="1.000000" stroke="none" 
	d="
M27.833633,253.993576 
	C24.511080,251.675629 21.188526,249.357666 17.516243,247.016449 
	C17.120501,231.303970 17.074488,215.614731 17.432903,199.532181 
	C21.168993,201.424484 24.500650,203.710114 27.901791,206.446335 
	C26.482647,219.166290 32.558876,227.045380 43.056011,231.933167 
	C50.245068,235.280594 57.740559,237.969910 64.909592,241.182281 
	C65.684540,242.978546 66.523155,244.642792 67.639412,246.093369 
	C70.002449,249.164139 72.510399,252.123383 74.545364,255.078079 
	C57.730537,252.263641 42.486916,246.360077 27.833635,237.271683 
	C27.833635,243.372498 27.833635,248.683044 27.833633,253.993576 
z"/>
<path fill="#1B89EC" opacity="1.000000" stroke="none" 
	d="
M397.003784,328.832062 
	C382.692963,328.885071 368.381317,328.877502 354.072327,329.067932 
	C352.287201,329.091705 350.516022,330.163757 348.362061,330.565674 
	C345.274628,327.562927 342.563568,324.744598 340.001343,321.624939 
	C345.621552,316.057312 351.092926,310.791016 357.430298,304.691193 
	C354.768524,302.530670 352.897095,300.898682 350.910583,299.421448 
	C345.889496,295.687561 345.892517,291.425812 348.812988,286.545319 
	C349.728027,285.016144 350.390442,283.335846 351.494812,281.917023 
	C354.584930,284.753693 357.348785,287.398010 360.112610,290.042358 
	C361.501221,291.952240 362.562988,294.266296 364.336365,295.700439 
	C371.154999,301.214752 369.962433,310.123199 364.657074,314.853210 
	C364.201202,315.259644 363.833282,315.764679 362.715759,317.020111 
	C370.757782,317.020111 377.917358,317.020111 385.650024,317.404541 
	C387.667236,318.791168 389.346710,319.577515 390.505951,320.841095 
	C392.822723,323.366394 394.854401,326.153229 397.003784,328.832062 
z"/>
<path fill="#219AF2" opacity="1.000000" stroke="none" 
	d="
M361.044495,221.108963 
	C359.810425,225.346268 362.122131,228.864548 366.233398,228.997559 
	C368.716461,229.077896 371.326477,228.680557 373.657898,229.313705 
	C379.188049,230.815521 381.952362,235.000305 381.997437,241.036987 
	C382.020813,244.163467 382.001556,247.290268 382.001556,251.022079 
	C386.227386,251.022079 390.154480,251.022079 394.612000,251.430420 
	C396.184479,253.480469 397.237244,255.115448 398.265717,256.765594 
	C399.521881,258.781036 400.757660,260.809204 402.002258,262.831879 
	C395.494934,262.831879 388.987640,262.831879 381.969116,262.831879 
	C381.969116,265.625549 381.969116,267.861603 381.576294,270.470947 
	C377.511871,267.561035 373.840302,264.277863 370.099976,260.530975 
	C370.031250,253.806488 370.031250,247.545715 370.031250,241.217972 
	C368.757843,241.111450 368.096802,240.933441 367.473938,241.022491 
	C358.255096,242.340637 351.246033,240.304367 349.874756,229.570724 
	C349.855896,229.422958 349.682129,229.301193 349.608795,229.153336 
	C345.187683,220.237289 345.337708,219.497391 353.179230,213.127991 
	C355.997620,215.899689 358.521057,218.504318 361.044495,221.108963 
z"/>
<path fill="#1B89EC" opacity="1.000000" stroke="none" 
	d="
M242.831970,170.996674 
	C242.805237,177.041168 248.345169,179.032623 251.571884,182.667358 
	C251.882706,183.017502 254.021408,181.744919 255.733093,181.520432 
	C258.447998,184.917862 260.741364,188.020493 262.854248,191.441650 
	C260.437927,192.695709 258.143433,193.513260 255.978668,194.591400 
	C251.529266,196.807358 247.546967,197.013275 244.130829,192.686111 
	C242.405304,190.500412 240.419785,188.519958 237.401901,185.170441 
	C232.208176,190.957642 227.674240,196.009659 222.842178,200.891647 
	C219.321793,198.470139 216.099533,196.218658 213.020859,193.661041 
	C216.313156,190.203079 219.622925,187.193359 222.564957,183.859146 
	C225.466995,180.570282 229.818390,178.368210 231.294266,173.486725 
	C226.577454,175.834122 222.339996,177.942963 217.851715,179.822418 
	C215.385056,176.692566 213.169205,173.792099 211.122787,170.581390 
	C217.180054,166.477234 223.067886,162.683289 229.124725,159.183777 
	C233.806488,163.317719 238.319229,167.157196 242.831970,170.996674 
z"/>
<path fill="#0E62DF" opacity="1.000000" stroke="none" 
	d="
M17.167599,166.995148 
	C17.111853,160.547653 16.707222,154.078842 17.099262,147.658691 
	C17.485163,141.339081 22.025173,137.226288 26.793629,133.345139 
	C29.509935,136.376541 31.768705,139.235489 33.879463,142.401581 
	C32.154884,145.625702 29.780025,148.385880 29.169785,151.492645 
	C27.941359,157.746613 32.686096,161.423889 37.203449,163.867432 
	C45.567837,168.391983 54.441277,171.975449 62.887215,176.195374 
	C63.412479,178.090942 63.907227,179.919708 64.944984,181.356201 
	C67.134018,184.386307 69.607292,187.211075 71.554153,190.072464 
	C56.777058,187.298431 43.327995,182.220764 30.903297,174.451920 
	C30.098988,173.949005 28.866344,174.131119 27.508045,173.919067 
	C23.844625,171.560776 20.506113,169.277954 17.167599,166.995148 
z"/>
<path fill="#29B2FA" opacity="1.000000" stroke="none" 
	d="
M333.007538,113.165627 
	C342.468536,113.110359 351.950134,112.663170 361.382111,113.159500 
	C366.353699,113.421120 369.022797,111.892159 370.903259,107.199722 
	C374.419769,109.414604 377.267792,111.728264 380.056763,114.444275 
	C376.551483,124.127106 382.176056,130.015274 393.483917,128.770996 
	C396.595337,131.644608 399.354858,134.343750 402.114410,137.042877 
	C389.696381,145.984299 372.393585,140.608826 367.185608,124.970924 
	C359.143463,124.970924 351.039032,124.970924 342.393402,124.577942 
	C338.903992,120.511848 335.955780,116.838737 333.007538,113.165627 
z"/>
<path fill="#1E91EF" opacity="1.000000" stroke="none" 
	d="
M242.900818,170.532684 
	C238.319229,167.157196 233.806488,163.317719 229.152390,158.797882 
	C232.422318,151.155045 232.423248,147.802383 226.299362,143.081863 
	C220.081146,138.288635 212.812271,134.858398 205.926331,130.507034 
	C204.031326,128.086884 202.180679,126.018326 200.403580,123.888405 
	C197.918411,120.909843 195.488083,117.885536 193.034286,114.880798 
	C210.901978,119.330292 228.546646,124.318611 239.845108,140.552841 
	C241.677414,143.185623 242.642563,146.833771 242.863068,150.090149 
	C243.312103,156.721664 242.979965,163.406067 242.900818,170.532684 
z"/>
<path fill="#229EF4" opacity="1.000000" stroke="none" 
	d="
M361.354858,220.970459 
	C358.521057,218.504318 355.997620,215.899689 353.319763,212.816406 
	C354.155304,211.270447 355.145233,210.203156 356.582275,208.653778 
	C349.430420,201.644638 342.491974,194.766541 335.405151,188.044861 
	C334.827545,187.497025 333.236450,188.017715 332.116302,188.041885 
	C329.515167,185.518219 326.914032,182.994537 324.132446,180.181030 
	C328.701141,171.935822 339.009033,172.250015 344.615997,179.103180 
	C347.837860,183.041092 351.396851,186.376770 357.649872,185.419876 
	C359.849854,189.626877 365.186462,191.499466 364.003754,196.833694 
	C363.947479,197.314453 363.656464,197.981796 363.868866,198.248962 
	C371.260559,207.546936 371.064056,211.480789 362.723633,219.794540 
	C362.373779,220.143280 362.018158,220.486282 361.354858,220.970459 
z"/>
<path fill="#219AF2" opacity="1.000000" stroke="none" 
	d="
M491.120544,339.038879 
	C482.727936,348.891663 460.664520,347.190704 455.451904,332.929535 
	C454.385864,330.012939 452.837555,328.447357 449.364594,328.908234 
	C446.271149,329.318726 443.078156,328.978760 439.444397,328.551086 
	C436.641815,324.476990 434.323944,320.821838 432.006073,317.166687 
	C436.656830,317.112213 441.367554,316.566772 445.943329,317.125946 
	C451.829010,317.845215 455.584595,316.050232 457.897827,310.265564 
	C461.374847,312.534241 464.208374,314.824188 467.018036,317.494690 
	C466.626068,320.737732 465.242340,323.948975 466.082703,326.396606 
	C468.481415,333.383270 473.223846,334.751068 481.470123,331.801758 
	C484.923035,334.325562 488.021790,336.682220 491.120544,339.038879 
z"/>
<path fill="#2AB6FB" opacity="1.000000" stroke="none" 
	d="
M428.005554,185.166672 
	C433.792053,185.111420 439.652130,184.457230 445.345978,185.156525 
	C452.066132,185.981888 455.710388,183.478867 457.796143,177.350540 
	C460.874725,180.357468 463.458099,183.235611 466.025452,186.510727 
	C464.000214,191.440262 465.552307,195.298752 468.893494,198.246124 
	C472.517548,201.443008 476.739746,201.819214 480.993896,199.226456 
	C483.063049,202.752167 485.051605,205.933243 487.040161,209.114319 
	C475.341003,217.544113 460.561249,210.863495 454.925659,199.971237 
	C454.238617,198.643311 452.338959,197.245453 450.901886,197.131378 
	C446.270081,196.763687 441.591827,196.981186 436.445557,196.552780 
	C435.021942,194.637390 434.171936,193.077530 433.126312,191.662155 
	C431.488861,189.445679 429.719208,187.326859 428.005554,185.166672 
z"/>
<path fill="#1678E7" opacity="1.000000" stroke="none" 
	d="
M345.006104,389.166077 
	C352.423676,389.166077 359.841248,389.166077 366.935455,389.166077 
	C368.521484,386.254791 369.884705,383.752533 371.867737,381.270569 
	C375.005676,383.898712 377.523773,386.506500 380.007568,389.515625 
	C377.931549,394.646606 378.764496,398.673798 382.646515,402.189301 
	C386.639374,405.805267 390.702759,405.389679 395.130249,403.178925 
	C397.866150,406.259857 400.431946,409.043488 402.997742,411.827087 
	C392.132660,421.181488 375.169037,416.901367 370.059631,405.744080 
	C368.280548,401.859161 366.042023,400.321075 361.878082,400.935303 
	C359.608276,401.270111 357.245880,400.977081 354.388123,400.576538 
	C350.902710,396.512634 347.954407,392.839355 345.006104,389.166077 
z"/>
<path fill="#177CE8" opacity="1.000000" stroke="none" 
	d="
M339.852539,321.926270 
	C342.563568,324.744598 345.274628,327.562927 348.010010,330.750275 
	C346.350616,332.927704 344.772949,334.850952 342.963135,336.522888 
	C337.631653,341.448090 330.707977,341.268524 325.603821,336.030975 
	C323.882355,334.264526 322.494690,332.172791 321.486633,330.901062 
	C314.953827,332.125885 313.641754,335.278564 313.774933,340.346710 
	C313.856842,343.463531 311.796509,346.636658 310.371826,349.947388 
	C307.461365,347.232727 304.877167,344.355103 302.146606,340.726196 
	C302.002838,339.311951 302.096619,338.634521 301.994293,337.988159 
	C300.584381,329.080414 302.809967,322.580383 312.888947,320.952881 
	C314.436218,320.703003 315.836670,319.592316 317.326233,318.927216 
	C320.907257,317.328125 324.292389,317.083435 327.039856,320.526001 
	C329.073883,323.074646 331.073090,325.651031 333.087799,328.215057 
	C333.526886,327.781952 333.966003,327.348816 334.405090,326.915680 
	C336.220917,325.252533 338.036713,323.589386 339.852539,321.926270 
z"/>
<path fill="#229EF4" opacity="1.000000" stroke="none" 
	d="
M402.445007,262.902283 
	C400.757660,260.809204 399.521881,258.781036 398.265717,256.765594 
	C397.237244,255.115448 396.184479,253.480469 395.072571,251.503357 
	C400.093933,251.167953 405.185242,251.167953 410.184692,251.167953 
	C411.998077,247.984512 413.650818,245.083084 415.777100,242.347672 
	C418.514404,245.714172 420.778229,248.914658 423.011963,252.511719 
	C421.095673,256.909973 422.005737,260.147888 424.928864,263.503296 
	C429.371582,268.603027 434.027344,267.116302 439.030792,265.226685 
	C441.083771,268.754120 443.065887,271.935822 445.047974,275.117493 
	C431.473633,283.488556 418.500336,279.055878 410.525543,262.972656 
	C408.121796,262.972656 405.504761,262.972656 402.445007,262.902283 
z"/>
<path fill="#2CBAFD" opacity="1.000000" stroke="none" 
	d="
M380.115845,114.041916 
	C377.267792,111.728264 374.419769,109.414604 371.228516,107.030327 
	C373.629761,100.889854 384.097656,95.864456 391.549957,97.018600 
	C410.919952,100.018456 414.998230,119.734764 408.062866,130.414169 
	C406.566254,132.718704 404.522003,134.667603 402.422211,136.911606 
	C399.354858,134.343750 396.595337,131.644608 393.751526,128.511505 
	C400.731934,123.117622 401.105530,116.361557 394.604462,111.127472 
	C390.279633,107.645493 386.629547,108.379723 380.115845,114.041916 
z"/>
<path fill="#2DBEFE" opacity="1.000000" stroke="none" 
	d="
M466.041473,186.113739 
	C463.458099,183.235611 460.874725,180.357468 458.121490,177.185577 
	C463.962921,168.351273 472.819977,167.676056 481.717285,169.442734 
	C489.988037,171.084976 495.487152,177.112854 496.802826,185.370712 
	C498.275146,194.611267 496.908844,203.493378 487.389404,209.057480 
	C485.051605,205.933243 483.063049,202.752167 481.160706,198.893097 
	C482.498108,196.350632 484.525970,194.611908 484.852112,192.597656 
	C485.762146,186.976898 483.035309,182.790421 478.158356,181.048843 
	C474.101746,179.600204 469.261932,181.623260 466.041473,186.113739 
z"/>
<path fill="#25A6F6" opacity="1.000000" stroke="none" 
	d="
M332.543793,113.089905 
	C335.955780,116.838737 338.903992,120.511848 341.929688,124.509171 
	C326.788879,124.887306 311.569855,124.883560 296.353607,125.087212 
	C294.885040,125.106865 293.433685,126.413177 291.903748,127.558121 
	C289.672852,126.280579 287.553833,124.511200 285.337311,122.873856 
	C283.921814,121.828224 282.362000,120.977905 280.516785,120.016899 
	C279.924469,114.919075 282.765259,113.011696 287.398560,113.009132 
	C302.292389,113.000885 317.186218,113.011086 332.543793,113.089905 
z"/>
<path fill="#25A6F6" opacity="1.000000" stroke="none" 
	d="
M445.357056,274.975830 
	C443.065887,271.935822 441.083771,268.754120 439.186066,264.897766 
	C444.525482,257.428192 442.693970,250.376801 434.961639,247.441391 
	C429.535645,245.381561 426.478485,249.192291 423.042053,252.115143 
	C420.778229,248.914658 418.514404,245.714172 416.102051,242.200287 
	C422.999573,234.762970 432.534241,233.005951 440.500916,236.347183 
	C447.665466,239.352005 453.842560,245.550720 454.108093,255.944733 
	C454.308929,263.805328 451.485138,269.880493 445.357056,274.975830 
z"/>
<path fill="#1880E9" opacity="1.000000" stroke="none" 
	d="
M380.041870,389.114319 
	C377.523773,386.506500 375.005676,383.898712 372.189972,381.120972 
	C378.237152,371.076843 394.414398,370.766968 402.318970,376.889893 
	C412.337250,384.650055 414.007324,397.416107 406.601196,407.956604 
	C406.231720,408.482452 406.012482,409.113861 405.205750,410.009155 
	C404.472229,410.585052 404.256256,410.847961 404.040283,411.110840 
	C404.001831,411.473541 403.818359,411.734161 403.243805,411.859894 
	C400.431946,409.043488 397.866150,406.259857 395.278809,402.863037 
	C399.022614,398.985260 400.244202,395.083313 398.114441,390.418732 
	C395.922577,385.618042 391.763214,384.194305 387.091217,385.154510 
	C384.576385,385.671356 382.381256,387.743805 380.041870,389.114319 
z"/>
<path fill="#23A1F5" opacity="1.000000" stroke="none" 
	d="
M491.429810,338.879913 
	C488.021790,336.682220 484.923035,334.325562 481.559265,331.601318 
	C481.294220,331.233734 481.724792,331.149780 481.963806,330.968536 
	C482.454376,330.484558 482.705963,330.181854 483.124817,329.536194 
	C483.554352,325.672394 485.018341,321.663147 483.827484,318.732849 
	C481.385559,312.724274 474.093933,310.687714 467.041870,317.114166 
	C464.208374,314.824188 461.374847,312.534241 458.216675,310.097961 
	C468.448547,295.620667 490.542297,299.783875 495.821014,314.943726 
	C498.360870,322.237946 498.626221,330.025726 492.911987,336.618042 
	C492.397308,337.211792 492.124329,338.015015 491.429810,338.879913 
z"/>
<path fill="#1069E1" opacity="1.000000" stroke="none" 
	d="
M280.096802,364.461426 
	C283.839691,366.946808 287.511902,369.896271 291.508423,372.920898 
	C291.832703,378.117432 291.832703,383.238861 291.832703,389.024567 
	C297.907074,389.024567 303.490936,389.024567 309.559814,389.446075 
	C311.110901,391.493439 312.294556,393.056061 313.212219,394.761810 
	C314.265228,396.719147 315.082428,398.803314 316.002045,400.832397 
	C306.403198,400.886444 296.804108,401.003754 287.205597,400.968475 
	C282.241455,400.950226 280.064941,398.738464 280.028320,393.732544 
	C279.958099,384.130707 280.019409,374.527893 280.096802,364.461426 
z"/>
<path fill="#1678E7" opacity="1.000000" stroke="none" 
	d="
M62.958244,115.890427 
	C72.708107,113.925522 82.429802,111.802719 92.218727,110.056839 
	C97.803978,109.060684 103.498848,108.679169 109.644913,108.427643 
	C111.244965,110.229317 112.330780,111.635315 113.447060,113.016685 
	C115.289719,115.296944 117.152061,117.561279 118.545120,119.905441 
	C110.239471,120.638878 102.362122,121.041031 94.558945,122.028954 
	C86.015892,123.110550 77.541351,124.733208 68.966881,125.773514 
	C66.917290,122.248123 64.937767,119.069275 62.958244,115.890427 
z"/>
<path fill="#1A84EA" opacity="1.000000" stroke="none" 
	d="
M119.006104,119.832321 
	C117.152061,117.561279 115.289719,115.296944 113.447060,113.016685 
	C112.330780,111.635315 111.244965,110.229317 110.075928,108.500717 
	C123.978661,108.110046 137.951004,108.016670 151.923141,108.042084 
	C153.668274,108.045258 155.412262,108.676758 157.602036,109.442421 
	C159.209763,111.589569 160.300018,113.366112 161.552139,115.020111 
	C163.307236,117.338501 165.182816,119.565689 166.586151,121.903488 
	C164.921448,121.659279 163.689148,121.129288 162.431671,121.060669 
	C149.330826,120.345650 136.225922,119.704765 122.914505,119.140396 
	C122.444626,119.399414 122.212120,119.596443 121.636322,119.890114 
	C120.510910,119.911896 119.758514,119.872108 119.006104,119.832321 
z"/>
<path fill="#1E91EF" opacity="1.000000" stroke="none" 
	d="
M431.542175,317.092773 
	C434.323944,320.821838 436.641815,324.476990 438.982819,328.482544 
	C425.314514,328.878479 411.623138,328.924042 397.467773,328.900818 
	C394.854401,326.153229 392.822723,323.366394 390.505951,320.841095 
	C389.346710,319.577515 387.667236,318.791168 386.113922,317.477386 
	C401.029266,317.116821 416.053772,317.067841 431.542175,317.092773 
z"/>
<path fill="#0441D4" opacity="1.000000" stroke="none" 
	d="
M82.426071,385.897766 
	C79.902725,382.956696 77.816475,380.071259 75.699608,377.208435 
	C74.541252,375.641907 73.331154,374.113617 72.512772,372.273163 
	C73.870987,372.009216 74.872063,371.955109 75.848991,372.084015 
	C88.568405,373.762360 101.284401,375.466583 114.022324,377.515259 
	C115.559837,379.943298 117.272804,381.910095 118.522369,384.136932 
	C119.330574,385.577271 119.460724,387.398102 119.894722,389.048431 
	C107.546608,388.019897 95.198502,386.991394 82.426071,385.897766 
z"/>
<path fill="#0A54DA" opacity="1.000000" stroke="none" 
	d="
M200.002380,380.840332 
	C187.288818,383.213654 174.575226,385.586975 161.410645,387.547455 
	C158.641479,383.811554 156.323334,380.488525 154.417145,377.082703 
	C160.603424,376.137695 166.399216,375.397034 172.146652,374.382599 
	C179.453323,373.093018 186.720825,371.581512 194.081039,370.492188 
	C196.105377,374.159210 198.053879,377.499756 200.002380,380.840332 
z"/>
<path fill="#136FE3" opacity="1.000000" stroke="none" 
	d="
M62.554096,115.934250 
	C64.937767,119.069275 66.917290,122.248123 68.764832,126.099785 
	C56.204826,129.863205 44.184345,133.874268 34.027473,142.094421 
	C31.768705,139.235489 29.509935,136.376541 27.101913,133.206329 
	C34.588829,125.330055 44.401184,121.719582 54.153847,118.053650 
	C56.717102,117.090134 59.479176,116.655548 62.554096,115.934250 
z"/>
<path fill="#0546D6" opacity="1.000000" stroke="none" 
	d="
M154.005188,377.165466 
	C156.323334,380.488525 158.641479,383.811554 160.982910,387.484344 
	C147.478119,388.469910 133.950073,389.105743 120.158379,389.395020 
	C119.460724,387.398102 119.330574,385.577271 118.522369,384.136932 
	C117.272804,381.910095 115.559837,379.943298 114.455215,377.450531 
	C120.563034,377.355621 126.259346,377.938477 131.954956,377.931732 
	C139.305328,377.923035 146.655136,377.442688 154.005188,377.165466 
z"/>
<path fill="#1D8EEE" opacity="1.000000" stroke="none" 
	d="
M167.006851,121.831894 
	C165.182816,119.565689 163.307236,117.338501 161.552139,115.020111 
	C160.300018,113.366112 159.209763,111.589569 158.026733,109.517685 
	C168.415817,110.673515 178.825592,112.178299 189.234833,113.686775 
	C190.364120,113.850418 191.490356,114.035278 192.826141,114.545547 
	C195.488083,117.885536 197.918411,120.909843 200.403580,123.888405 
	C202.180679,126.018326 204.031326,128.086884 205.542877,130.570465 
	C192.493362,127.916046 179.750107,124.873970 167.006851,121.831894 
z"/>
<path fill="#0C5BDD" opacity="1.000000" stroke="none" 
	d="
M200.368011,380.777771 
	C198.053879,377.499756 196.105377,374.159210 194.419418,370.318054 
	C205.961716,365.560822 217.958603,362.757172 226.960526,353.885590 
	C229.479172,356.494385 231.997818,359.103149 234.809204,361.883240 
	C228.055878,370.390808 218.187241,374.030182 208.516479,377.974579 
	C205.972763,379.012054 203.330597,379.808228 200.368011,380.777771 
z"/>
<path fill="#1E91EF" opacity="1.000000" stroke="none" 
	d="
M263.034760,191.123108 
	C260.741364,188.020493 258.447998,184.917862 256.079895,181.490265 
	C256.670929,179.803604 257.845367,178.470474 257.923676,177.075806 
	C258.708740,163.090775 260.914398,160.965637 275.107697,160.994492 
	C275.769409,160.995834 276.431152,161.009750 277.548828,161.091324 
	C279.246948,163.188797 280.479340,165.218842 281.734314,167.234863 
	C282.762329,168.886322 283.817291,170.521072 284.469910,172.572510 
	C279.484619,172.981766 274.889648,172.981766 269.998718,172.981766 
	C269.998718,176.738434 269.903748,179.876251 270.020569,183.006165 
	C270.204498,187.934692 268.162384,190.825638 263.034760,191.123108 
z"/>
<path fill="#27ADF8" opacity="1.000000" stroke="none" 
	d="
M427.541870,185.091553 
	C429.719208,187.326859 431.488861,189.445679 433.126312,191.662155 
	C434.171936,193.077530 435.021942,194.637390 435.982544,196.482605 
	C423.647583,196.879883 411.289764,196.927048 398.466278,196.518204 
	C396.335266,192.430450 394.669891,188.798691 393.004517,185.166931 
	C404.362396,185.116776 415.720276,185.066605 427.541870,185.091553 
z"/>
<path fill="#136FE3" opacity="1.000000" stroke="none" 
	d="
M316.466370,400.899658 
	C315.082428,398.803314 314.265228,396.719147 313.212219,394.761810 
	C312.294556,393.056061 311.110901,391.493439 310.023438,389.516327 
	C321.360626,389.117523 332.719147,389.069977 344.541870,389.094269 
	C347.954407,392.839355 350.902710,396.512634 353.928070,400.510071 
	C341.647003,400.878448 329.288849,400.922699 316.466370,400.899658 
z"/>
<path fill="#1E91EF" opacity="1.000000" stroke="none" 
	d="
M370.168701,260.994690 
	C373.840302,264.277863 377.511871,267.561035 381.507904,270.918945 
	C382.352936,280.611755 378.146881,285.149475 368.396698,284.920197 
	C364.531586,284.829315 361.639740,285.417999 360.430481,289.863464 
	C357.348785,287.398010 354.584930,284.753693 351.453857,281.508240 
	C353.176086,269.033539 363.239960,274.475647 370.168701,272.466614 
	C370.168701,268.527649 370.168701,264.761169 370.168701,260.994690 
z"/>
<path fill="#25A6F6" opacity="1.000000" stroke="none" 
	d="
M392.540771,185.092682 
	C394.669891,188.798691 396.335266,192.430450 398.002563,196.447876 
	C386.980133,196.880356 375.955750,196.927170 364.467560,196.903839 
	C365.186462,191.499466 359.849854,189.626877 358.079926,185.493469 
	C369.361725,185.117325 380.719360,185.067871 392.540771,185.092682 
z"/>
<path fill="#0C5BDD" opacity="1.000000" stroke="none" 
	d="
M17.097916,167.459595 
	C20.506113,169.277954 23.844625,171.560776 27.577700,174.383560 
	C27.925610,185.280945 27.878958,195.638336 27.832306,205.995743 
	C24.500650,203.710114 21.168993,201.424484 17.502693,199.067947 
	C17.121445,188.639374 17.074837,178.281693 17.097916,167.459595 
z"/>
<path fill="#1678E7" opacity="1.000000" stroke="none" 
	d="
M404.294067,411.018768 
	C404.256256,410.847961 404.472229,410.585052 404.901459,410.179810 
	C404.925751,410.333832 404.736786,410.630249 404.294067,411.018768 
z"/>
<path fill="#000000" opacity="1.000000" stroke="none" 
	d="
M370.099976,260.530975 
	C370.168701,264.761169 370.168701,268.527649 370.168701,272.466614 
	C363.239960,274.475647 353.176086,269.033539 351.127533,281.315918 
	C350.390442,283.335846 349.728027,285.016144 348.812988,286.545319 
	C345.892517,291.425812 345.889496,295.687561 350.910583,299.421448 
	C352.897095,300.898682 354.768524,302.530670 357.430298,304.691193 
	C351.092926,310.791016 345.621552,316.057312 340.001343,321.624939 
	C338.036713,323.589386 336.220917,325.252533 334.405090,326.915680 
	C333.966003,327.348816 333.526886,327.781952 333.087799,328.215057 
	C331.073090,325.651031 329.073883,323.074646 327.039856,320.526001 
	C324.292389,317.083435 320.907257,317.328125 317.326233,318.927216 
	C315.836670,319.592316 314.436218,320.703003 312.888947,320.952881 
	C302.809967,322.580383 300.584381,329.080414 301.994293,337.988159 
	C302.096619,338.634521 302.002838,339.311951 301.977692,340.432068 
	C291.503540,340.889191 281.051941,340.889191 270.904297,340.889191 
	C270.000275,335.338257 270.712677,328.875092 267.851440,325.176514 
	C264.961365,321.440704 258.644226,320.122223 253.619965,318.328796 
	C246.901245,315.930542 244.075165,321.865326 240.026825,325.655762 
	C238.646805,325.837738 236.952423,326.190704 236.247452,325.513550 
	C229.904495,319.420837 223.813950,313.065277 217.468628,306.975159 
	C215.477692,305.064301 216.248856,303.970398 218.278961,302.209167 
	C222.086853,298.282227 227.004395,295.396942 224.694504,289.375366 
	C222.779602,284.383392 221.558914,278.033386 217.820816,275.141205 
	C214.124115,272.281067 207.658554,272.999664 202.111877,272.100464 
	C202.111877,261.946106 202.111877,251.495804 202.568939,241.022797 
	C206.169922,240.997849 209.316437,240.914322 212.457123,241.013840 
	C216.407776,241.139038 218.843750,239.522430 220.057663,235.622208 
	C221.061523,232.396866 222.584778,229.329224 223.935745,226.216812 
	C225.638489,222.293961 225.990479,218.668777 222.164642,215.648254 
	C219.741379,213.735062 217.430298,211.679718 215.114471,209.726547 
	C218.447723,206.127899 220.794022,203.594788 223.140320,201.061676 
	C227.674240,196.009659 232.208176,190.957642 237.401901,185.170441 
	C240.419785,188.519958 242.405304,190.500412 244.130829,192.686111 
	C247.546967,197.013275 251.529266,196.807358 255.978668,194.591400 
	C258.143433,193.513260 260.437927,192.695709 262.854248,191.441650 
	C268.162384,190.825638 270.204498,187.934692 270.020569,183.006165 
	C269.903748,179.876251 269.998718,176.738434 269.998718,172.981766 
	C274.889648,172.981766 279.484619,172.981766 284.541809,172.907990 
	C290.447784,172.834198 295.891510,172.834198 301.183105,172.834198 
	C302.006409,178.507904 301.140411,185.024475 303.974030,188.647751 
	C306.963684,192.470566 313.354431,193.897537 318.492523,195.710312 
	C325.144073,198.057068 327.942535,192.093643 331.979340,188.352402 
	C333.236450,188.017715 334.827545,187.497025 335.405151,188.044861 
	C342.491974,194.766541 349.430420,201.644638 356.582275,208.653778 
	C355.145233,210.203156 354.155304,211.270447 353.024841,212.649353 
	C345.337708,219.497391 345.187683,220.237289 349.608795,229.153336 
	C349.682129,229.301193 349.855896,229.422958 349.874756,229.570724 
	C351.246033,240.304367 358.255096,242.340637 367.473938,241.022491 
	C368.096802,240.933441 368.757843,241.111450 370.031250,241.217972 
	C370.031250,247.545715 370.031250,253.806488 370.099976,260.530975 
M318.148560,283.350006 
	C323.587982,276.902527 326.978302,269.628815 327.837952,260.592255 
	C327.562531,257.508118 327.294067,254.423325 327.010590,251.339935 
	C324.555756,224.639725 295.503815,208.500168 271.137695,218.005173 
	C260.237030,222.466278 251.721115,229.343491 247.231705,241.338501 
	C246.154114,246.239075 244.115097,251.152405 244.179932,256.037811 
	C244.371292,270.458160 249.567932,282.973907 261.915588,291.205963 
	C272.229492,298.082123 283.612488,301.266907 296.831970,297.015533 
	C305.193817,294.857910 312.480896,290.967255 318.148560,283.350006 
z"/>
<path fill="#000000" opacity="1.000000" stroke="none" 
	d="
M227.113937,353.570984 
	C217.958603,362.757172 205.961716,365.560822 194.343597,369.991577 
	C186.720825,371.581512 179.453323,373.093018 172.146652,374.382599 
	C166.399216,375.397034 160.603424,376.137695 154.417145,377.082703 
	C146.655136,377.442688 139.305328,377.923035 131.954956,377.931732 
	C126.259346,377.938477 120.563034,377.355621 114.434143,377.099548 
	C101.284401,375.466583 88.568405,373.762360 75.848991,372.084015 
	C74.872063,371.955109 73.870987,372.009216 72.458206,371.927979 
	C62.337784,368.247986 52.433926,365.079987 42.999065,360.862732 
	C32.946041,356.369171 26.884150,348.882446 27.894297,336.859222 
	C28.476692,329.927277 27.981184,322.904785 27.901806,315.458405 
	C27.832762,310.841644 27.832762,306.689514 27.832762,301.480286 
	C41.870872,310.686676 56.441139,316.353607 72.783096,319.398071 
	C78.071045,320.513000 82.695473,321.382355 87.355133,321.974426 
	C95.559311,323.016907 103.785004,323.889984 112.466324,324.899109 
	C126.955612,324.587555 140.980270,324.210876 155.445190,323.898560 
	C168.938370,321.679047 181.991257,319.395172 195.044159,317.111298 
	C196.191925,317.002228 197.575073,317.270081 198.449768,316.723846 
	C204.786728,312.766052 208.968765,315.573517 213.193878,320.524078 
	C217.488785,325.556458 222.490356,329.985535 227.180267,334.680969 
	C232.692307,340.199524 232.725250,347.472717 227.113937,353.570984 
M58.195560,335.083038 
	C56.832432,334.575562 55.465176,334.078857 54.106934,333.558655 
	C49.958366,331.969788 45.031765,333.106445 44.080032,335.880432 
	C42.589863,340.223785 44.412552,343.178864 49.700115,345.015991 
	C51.226318,345.546265 52.706772,346.256348 54.269390,346.623718 
	C57.608784,347.408875 61.058624,347.612946 62.574741,343.735382 
	C64.025047,340.026093 62.930138,336.967163 58.195560,335.083038 
z"/>
<path fill="#000000" opacity="1.000000" stroke="none" 
	d="
M27.903959,254.458008 
	C27.833635,248.683044 27.833635,243.372498 27.833635,237.271683 
	C42.486916,246.360077 57.730537,252.263641 74.775665,255.406860 
	C77.017838,256.073700 78.605087,256.481720 80.216240,256.629944 
	C92.142036,257.727234 104.072586,258.772827 116.430252,259.901245 
	C121.265060,260.312347 125.690399,261.101135 130.073624,260.912354 
	C140.394943,260.467712 150.696182,259.556671 161.433533,258.899139 
	C171.165253,257.584473 180.468964,256.205078 190.003113,254.791504 
	C190.003113,260.317657 190.000931,266.108734 190.003616,271.899841 
	C190.007782,280.841064 194.188751,285.339020 203.167236,284.861603 
	C208.534348,284.576233 210.984940,286.654907 211.772644,291.545685 
	C210.795456,292.702026 209.843796,293.828217 208.892136,294.954376 
	C207.229248,297.071655 205.671280,299.285400 203.854889,301.261597 
	C203.062225,302.124023 201.804764,302.723663 200.647293,303.058014 
	C195.538086,304.533905 190.388412,305.869781 184.636261,307.621216 
	C176.815308,309.005676 169.610062,310.015503 162.408142,311.048401 
	C157.604904,311.737213 152.806381,312.458862 147.541443,313.095184 
	C132.385956,312.738251 117.694756,312.451965 102.575989,312.096802 
	C88.433464,309.407227 74.718506,306.786530 61.003544,304.165833 
	C52.730495,300.103424 44.354980,296.233887 36.219540,291.912415 
	C30.566971,288.909790 28.153166,283.594482 28.033966,277.339752 
	C27.891603,269.869629 27.983730,262.395081 27.903959,254.458008 
M53.456879,268.993469 
	C49.555016,267.094879 46.231102,268.087708 44.263252,271.725647 
	C42.415737,275.141083 44.492233,278.154236 49.332588,280.107788 
	C51.290401,280.897980 53.297573,282.564575 55.145130,282.388977 
	C57.748260,282.141602 61.410202,281.230591 62.471088,279.375031 
	C63.996147,276.707581 63.641792,272.911224 59.648838,271.270691 
	C57.854542,270.533508 56.052582,269.814941 53.456879,268.993469 
z"/>
<path fill="#074DD8" opacity="1.000000" stroke="none" 
	d="
M61.078773,304.490173 
	C74.718506,306.786530 88.433464,309.407227 102.651100,312.421265 
	C106.103081,316.821075 109.052383,320.827545 112.001686,324.833984 
	C103.785004,323.889984 95.559311,323.016907 87.355133,321.974426 
	C82.695473,321.382355 78.071045,320.513000 73.198013,319.444763 
	C70.618561,316.222382 68.288391,313.310150 65.919250,310.429993 
	C64.359886,308.534271 62.744373,306.684753 61.078773,304.490173 
z"/>
<path fill="#136FE3" opacity="1.000000" stroke="none" 
	d="
M209.186584,295.123993 
	C209.843796,293.828217 210.795456,292.702026 211.772644,291.545685 
	C210.984940,286.654907 208.534348,284.576233 203.167236,284.861603 
	C194.188751,285.339020 190.007782,280.841064 190.003616,271.899841 
	C190.000931,266.108734 190.003113,260.317657 190.003113,254.791504 
	C180.468964,256.205078 171.165253,257.584473 161.356079,258.574646 
	C158.569138,254.845230 156.287659,251.505081 154.419922,248.080536 
	C159.466904,247.331436 164.119675,246.778778 168.728897,245.976074 
	C175.843994,244.736938 182.929276,243.326645 188.806122,242.219070 
	C190.147522,238.641205 191.024033,236.303314 192.243683,234.035797 
	C195.761826,236.419281 198.936859,238.732391 202.111877,241.045502 
	C202.111877,251.495804 202.111877,261.946106 202.111877,272.100464 
	C207.658554,272.999664 214.124115,272.281067 217.820816,275.141205 
	C221.558914,278.033386 222.779602,284.383392 224.694504,289.375366 
	C227.004395,295.396942 222.086853,298.282227 218.421906,301.900085 
	C215.238983,299.790253 212.360016,297.541931 209.186584,295.123993 
z"/>
<path fill="#0D5FDE" opacity="1.000000" stroke="none" 
	d="
M148.005753,313.165833 
	C152.806381,312.458862 157.604904,311.737213 162.408142,311.048401 
	C169.610062,310.015503 176.815308,309.005676 184.433563,307.964661 
	C188.134003,310.802612 191.420013,313.661987 194.875092,316.816345 
	C181.991257,319.395172 168.938370,321.679047 155.367859,323.574066 
	C152.568741,319.845428 150.287247,316.505646 148.005753,313.165833 
z"/>
<path fill="#000000" opacity="1.000000" stroke="none" 
	d="
M191.900558,233.965439 
	C191.024033,236.303314 190.147522,238.641205 188.806122,242.219070 
	C182.929276,243.326645 175.843994,244.736938 168.728897,245.976074 
	C164.119675,246.778778 159.466904,247.331436 153.959946,248.008667 
	C143.489166,248.347092 133.893875,248.830002 124.294342,248.937790 
	C118.867210,248.998749 113.433159,248.443100 107.573257,248.095551 
	C93.129219,245.668427 79.114136,243.310928 65.099060,240.953430 
	C57.740559,237.969910 50.245068,235.280594 43.056011,231.933167 
	C32.558876,227.045380 26.482647,219.166290 27.901787,206.446335 
	C27.878958,195.638336 27.925610,185.280945 27.902607,174.459045 
	C28.866344,174.131119 30.098988,173.949005 30.903297,174.451920 
	C43.327995,182.220764 56.777058,187.298431 71.781418,190.402939 
	C73.997162,191.084030 75.563965,191.490509 77.156448,191.673569 
	C89.435394,193.084961 101.719315,194.453094 114.466049,195.901703 
	C124.058914,195.980881 133.189011,196.094162 142.315094,195.950684 
	C145.550171,195.899841 148.775436,195.223709 152.457916,194.899033 
	C157.476288,194.641708 162.101242,194.671936 166.594650,193.918167 
	C174.804764,192.540924 182.937073,190.699753 191.514832,189.027313 
	C200.652740,186.018951 209.377625,183.035370 218.102524,180.051788 
	C222.339996,177.942963 226.577454,175.834122 231.294266,173.486725 
	C229.818390,178.368210 225.466995,180.570282 222.564957,183.859146 
	C219.622925,187.193359 216.313156,190.203079 212.715927,193.789963 
	C210.276840,196.211731 208.183182,198.106644 206.315842,200.203140 
	C201.565552,205.536484 202.050995,212.667740 206.068817,216.509033 
	C208.194595,218.541428 210.553177,220.330338 212.477875,221.952133 
	C208.972504,228.974228 208.971527,229.055481 202.470627,228.977921 
	C198.075745,228.925491 194.502792,230.349396 191.900558,233.965439 
M59.545860,206.901855 
	C56.470657,205.934860 53.445320,204.728973 50.305099,204.073441 
	C47.599483,203.508652 44.684025,203.925903 44.136925,207.306244 
	C43.644260,210.350220 43.309349,213.720932 47.385517,215.097229 
	C49.834957,215.924255 52.165817,217.221298 54.667606,217.743134 
	C57.517292,218.337540 60.718643,218.699234 62.282326,215.233963 
	C63.692566,212.108719 63.667656,209.151627 59.545860,206.901855 
z"/>
<path fill="#0C5BDD" opacity="1.000000" stroke="none" 
	d="
M64.909592,241.182281 
	C79.114136,243.310928 93.129219,245.668427 107.594315,248.445679 
	C108.980736,250.361450 109.828194,251.923218 110.874031,253.338364 
	C112.512802,255.555847 114.285606,257.674286 116.001648,259.834656 
	C104.072586,258.772827 92.142036,257.727234 80.216240,256.629944 
	C78.605087,256.481720 77.017838,256.073700 75.189224,255.457153 
	C72.510399,252.123383 70.002449,249.164139 67.639412,246.093369 
	C66.523155,244.642792 65.684540,242.978546 64.909592,241.182281 
z"/>
<path fill="#000000" opacity="1.000000" stroke="none" 
	d="
M166.586151,121.903488 
	C179.750107,124.873970 192.493362,127.916046 205.620056,130.894684 
	C212.812271,134.858398 220.081146,138.288635 226.299362,143.081863 
	C232.423248,147.802383 232.422318,151.155045 228.983368,158.503433 
	C223.067886,162.683289 217.180054,166.477234 210.735092,170.625778 
	C200.966232,173.709656 191.754486,176.438919 182.110809,179.141693 
	C169.454636,180.799057 157.230423,182.482941 144.542145,184.094284 
	C130.719818,183.736359 117.361565,183.450974 103.573631,183.095184 
	C99.273033,182.599838 95.356178,182.419205 91.540253,181.701767 
	C82.036583,179.914993 72.578865,177.883881 63.102699,175.950867 
	C54.441277,171.975449 45.567837,168.391983 37.203449,163.867432 
	C32.686096,161.423889 27.941359,157.746613 29.169785,151.492645 
	C29.780025,148.385880 32.154884,145.625702 33.879463,142.401581 
	C44.184345,133.874268 56.204826,129.863205 68.834900,126.446327 
	C77.541351,124.733208 86.015892,123.110550 94.558945,122.028954 
	C102.362122,121.041031 110.239471,120.638878 118.545120,119.905441 
	C119.758514,119.872108 120.510910,119.911896 121.899940,119.921890 
	C122.731758,119.609169 122.926956,119.326241 123.122147,119.043312 
	C136.225922,119.704765 149.330826,120.345650 162.431671,121.060669 
	C163.689148,121.129288 164.921448,121.659279 166.586151,121.903488 
z"/>
<path fill="#177CE8" opacity="1.000000" stroke="none" 
	d="
M192.243683,234.035797 
	C194.502792,230.349396 198.075745,228.925491 202.470627,228.977921 
	C208.971527,229.055481 208.972504,228.974228 212.477875,221.952133 
	C210.553177,220.330338 208.194595,218.541428 206.068817,216.509033 
	C202.050995,212.667740 201.565552,205.536484 206.315842,200.203140 
	C208.183182,198.106644 210.276840,196.211731 212.572342,194.096085 
	C216.099533,196.218658 219.321793,198.470139 222.842194,200.891663 
	C220.794022,203.594788 218.447723,206.127899 215.114471,209.726547 
	C217.430298,211.679718 219.741379,213.735062 222.164642,215.648254 
	C225.990479,218.668777 225.638489,222.293961 223.935745,226.216812 
	C222.584778,229.329224 221.061523,232.396866 220.057663,235.622208 
	C218.843750,239.522430 216.407776,241.139038 212.457123,241.013840 
	C209.316437,240.914322 206.169922,240.997849 202.568939,241.022797 
	C198.936859,238.732391 195.761826,236.419281 192.243683,234.035797 
z"/>
<path fill="#1A84EA" opacity="1.000000" stroke="none" 
	d="
M182.542755,179.168198 
	C191.754486,176.438919 200.966232,173.709656 210.565659,170.936005 
	C213.169205,173.792099 215.385056,176.692566 217.851715,179.822418 
	C209.377625,183.035370 200.652740,186.018951 191.263107,188.802307 
	C187.913162,185.457443 185.227966,182.312820 182.542755,179.168198 
z"/>
<path fill="#1069E1" opacity="1.000000" stroke="none" 
	d="
M62.887215,176.195374 
	C72.578865,177.883881 82.036583,179.914993 91.540253,181.701767 
	C95.356178,182.419205 99.273033,182.599838 103.650185,183.423920 
	C107.438187,187.826920 110.719940,191.830780 114.001694,195.834641 
	C101.719315,194.453094 89.435394,193.084961 77.156448,191.673569 
	C75.563965,191.490509 73.997162,191.084030 72.191200,190.450562 
	C69.607292,187.211075 67.134018,184.386307 64.944984,181.356201 
	C63.907227,179.919708 63.412479,178.090942 62.887215,176.195374 
z"/>
<path fill="#000000" opacity="1.000000" stroke="none" 
	d="
M380.056763,114.444267 
	C386.629547,108.379723 390.279633,107.645493 394.604462,111.127472 
	C401.105530,116.361557 400.731934,123.117622 393.399597,128.337036 
	C382.176056,130.015274 376.551483,124.127106 380.056763,114.444267 
z"/>
<path fill="#000000" opacity="1.000000" stroke="none" 
	d="
M481.724792,331.149780 
	C481.724792,331.149780 481.294220,331.233734 481.205078,331.434143 
	C473.223846,334.751068 468.481415,333.383270 466.082703,326.396606 
	C465.242340,323.948975 466.626068,320.737732 467.018036,317.494690 
	C474.093933,310.687714 481.385559,312.724274 483.827484,318.732849 
	C485.018341,321.663147 483.554352,325.672394 482.840332,329.651489 
	C482.167297,330.456421 481.946045,330.803101 481.724792,331.149780 
z"/>
<path fill="#000000" opacity="1.000000" stroke="none" 
	d="
M466.025452,186.510712 
	C469.261932,181.623260 474.101746,179.600204 478.158356,181.048843 
	C483.035309,182.790421 485.762146,186.976898 484.852112,192.597656 
	C484.525970,194.611908 482.498108,196.350632 481.080139,198.548462 
	C476.739746,201.819214 472.517548,201.443008 468.893494,198.246124 
	C465.552307,195.298752 464.000214,191.440262 466.025452,186.510712 
z"/>
<path fill="#000000" opacity="1.000000" stroke="none" 
	d="
M380.007599,389.515625 
	C382.381256,387.743805 384.576385,385.671356 387.091217,385.154510 
	C391.763214,384.194305 395.922577,385.618042 398.114441,390.418732 
	C400.244202,395.083313 399.022614,398.985260 395.108673,402.565674 
	C390.702759,405.389679 386.639374,405.805267 382.646515,402.189301 
	C378.764496,398.673798 377.931549,394.646606 380.007599,389.515625 
z"/>
<path fill="#000000" opacity="1.000000" stroke="none" 
	d="
M423.011963,252.511719 
	C426.478485,249.192291 429.535645,245.381561 434.961639,247.441391 
	C442.693970,250.376801 444.525482,257.428192 439.115173,264.552002 
	C434.027344,267.116302 429.371582,268.603027 424.928864,263.503296 
	C422.005737,260.147888 421.095673,256.909973 423.011963,252.511719 
z"/>
<path fill="#219AF2" opacity="1.000000" stroke="none" 
	d="
M481.963806,330.968536 
	C481.946045,330.803101 482.167297,330.456421 482.673035,329.994446 
	C482.705963,330.181854 482.454376,330.484558 481.963806,330.968536 
z"/>
<path fill="#1678E7" opacity="1.000000" stroke="none" 
	d="
M122.914497,119.140388 
	C122.926956,119.326241 122.731758,119.609169 122.272949,119.860321 
	C122.212120,119.596443 122.444626,119.399414 122.914497,119.140388 
z"/>
<path fill="#177BE7" opacity="1.000000" stroke="none" 
	d="
M296.045197,297.111237 
	C283.612488,301.266907 272.229492,298.082123 261.915588,291.205963 
	C249.567932,282.973907 244.371292,270.458160 244.179932,256.037811 
	C244.115097,251.152405 246.154114,246.239075 247.900421,241.219666 
	C251.393036,243.774063 254.216934,246.447296 257.026489,249.543335 
	C257.239563,255.069199 256.618469,260.389374 257.857910,265.233521 
	C261.208801,278.329834 272.420044,286.301300 288.079529,287.490295 
	C290.784973,290.913483 293.415100,294.012360 296.045197,297.111237 
z"/>
<path fill="#1D8EEE" opacity="1.000000" stroke="none" 
	d="
M271.861053,217.942337 
	C295.503815,208.500168 324.555756,224.639725 327.010590,251.339935 
	C327.294067,254.423325 327.562531,257.508118 327.118774,260.794495 
	C324.866974,260.097717 323.288116,259.267853 321.812927,258.282776 
	C319.790161,256.932037 317.846039,255.463516 315.534668,253.839859 
	C314.741455,247.591064 312.451019,242.365646 308.383423,237.854660 
	C300.722443,229.358688 291.333893,225.879211 279.981567,227.484039 
	C277.259460,224.069977 274.560272,221.006149 271.861053,217.942337 
z"/>
<path fill="#1A84EA" opacity="1.000000" stroke="none" 
	d="
M271.499390,217.973755 
	C274.560272,221.006149 277.259460,224.069977 279.607483,227.564728 
	C268.124817,231.118546 261.135986,238.598022 257.040833,249.120544 
	C254.216934,246.447296 251.393036,243.774063 248.225464,241.029861 
	C251.721115,229.343491 260.237030,222.466278 271.499390,217.973755 
z"/>
<path fill="#1880E9" opacity="1.000000" stroke="none" 
	d="
M296.438599,297.063385 
	C293.415100,294.012360 290.784973,290.913483 288.429993,287.304138 
	C296.631927,285.421143 303.449280,281.982117 309.171326,276.138580 
	C312.257568,278.870941 315.053192,281.426392 317.848785,283.981842 
	C312.480896,290.967255 305.193817,294.857910 296.438599,297.063385 
z"/>
<path fill="#1B89EC" opacity="1.000000" stroke="none" 
	d="
M317.998657,283.665924 
	C315.053192,281.426392 312.257568,278.870941 309.323761,275.819977 
	C314.093781,269.073334 316.052551,261.895935 315.868195,254.045486 
	C317.846039,255.463516 319.790161,256.932037 321.812927,258.282776 
	C323.288116,259.267853 324.866974,260.097717 326.769409,261.024841 
	C326.978302,269.628815 323.587982,276.902527 317.998657,283.665924 
z"/>
<path fill="#0A54DA" opacity="1.000000" stroke="none" 
	d="
M147.541443,313.095184 
	C150.287247,316.505646 152.568741,319.845428 154.927582,323.509705 
	C140.980270,324.210876 126.955612,324.587555 112.466324,324.899109 
	C109.052383,320.827545 106.103081,316.821075 103.078674,312.490143 
	C117.694756,312.451965 132.385956,312.738251 147.541443,313.095184 
z"/>
<path fill="#0441D4" opacity="1.000000" stroke="none" 
	d="
M58.555004,335.257111 
	C62.930138,336.967163 64.025047,340.026093 62.574741,343.735382 
	C61.058624,347.612946 57.608784,347.408875 54.269390,346.623718 
	C52.706772,346.256348 51.226318,345.546265 49.700115,345.015991 
	C44.412552,343.178864 42.589863,340.223785 44.080032,335.880432 
	C45.031765,333.106445 49.958366,331.969788 54.106934,333.558655 
	C55.465176,334.078857 56.832432,334.575562 58.555004,335.257111 
z"/>
<path fill="#0E62DF" opacity="1.000000" stroke="none" 
	d="
M116.430252,259.901245 
	C114.285606,257.674286 112.512802,255.555847 110.874031,253.338364 
	C109.828194,251.923218 108.980736,250.361450 108.023277,248.515289 
	C113.433159,248.443100 118.867210,248.998749 124.294342,248.937790 
	C133.893875,248.830002 143.489166,248.347092 153.546219,248.093048 
	C156.287659,251.505081 158.569138,254.845230 160.928070,258.509888 
	C150.696182,259.556671 140.394943,260.467712 130.073624,260.912354 
	C125.690399,261.101135 121.265060,260.312347 116.430252,259.901245 
z"/>
<path fill="#074DD8" opacity="1.000000" stroke="none" 
	d="
M53.855492,269.040710 
	C56.052582,269.814941 57.854542,270.533508 59.648838,271.270691 
	C63.641792,272.911224 63.996147,276.707581 62.471088,279.375031 
	C61.410202,281.230591 57.748260,282.141602 55.145130,282.388977 
	C53.297573,282.564575 51.290401,280.897980 49.332588,280.107788 
	C44.492233,278.154236 42.415737,275.141083 44.263252,271.725647 
	C46.231102,268.087708 49.555016,267.094879 53.855492,269.040710 
z"/>
<path fill="#136FE3" opacity="1.000000" stroke="none" 
	d="
M114.466049,195.901703 
	C110.719940,191.830780 107.438187,187.826920 104.079872,183.494324 
	C117.361565,183.450974 130.719818,183.736359 144.616959,184.419281 
	C147.438965,188.155563 149.722076,191.494293 152.005173,194.833038 
	C148.775436,195.223709 145.550171,195.899841 142.315094,195.950684 
	C133.189011,196.094162 124.058914,195.980881 114.466049,195.901703 
z"/>
<path fill="#177BE7" opacity="1.000000" stroke="none" 
	d="
M152.457916,194.899033 
	C149.722076,191.494293 147.438965,188.155563 145.081024,184.491821 
	C157.230423,182.482941 169.454636,180.799057 182.110809,179.141693 
	C185.227966,182.312820 187.913162,185.457443 190.850098,188.827057 
	C182.937073,190.699753 174.804764,192.540924 166.594650,193.918167 
	C162.101242,194.671936 157.476288,194.641708 152.457916,194.899033 
z"/>
<path fill="#0C5BDD" opacity="1.000000" stroke="none" 
	d="
M59.936546,206.991119 
	C63.667656,209.151627 63.692566,212.108719 62.282326,215.233963 
	C60.718643,218.699234 57.517292,218.337540 54.667606,217.743134 
	C52.165817,217.221298 49.834957,215.924255 47.385517,215.097229 
	C43.309349,213.720932 43.644260,210.350220 44.136925,207.306244 
	C44.684025,203.925903 47.599483,203.508652 50.305099,204.073441 
	C53.445320,204.728973 56.470657,205.934860 59.936546,206.991119 
z"/>
<path fill="#000000" opacity="1.000000" stroke="none" 
	d="
M315.534668,253.839859 
	C316.052551,261.895935 314.093781,269.073334 309.033112,275.643066 
	C303.449280,281.982117 296.631927,285.421143 288.354675,286.979797 
	C272.420044,286.301300 261.208801,278.329834 257.857910,265.233521 
	C256.618469,260.389374 257.239563,255.069199 257.026489,249.543335 
	C261.135986,238.598022 268.124817,231.118546 279.630371,227.914948 
	C291.333893,225.879211 300.722443,229.358688 308.383423,237.854660 
	C312.451019,242.365646 314.741455,247.591064 315.534668,253.839859 
z"/>
</svg>